<svg width="24" height="25" viewBox="0 0 24 25" fill="none" xmlns="http://www.w3.org/2000/svg">
<path d="M20.2718 16.73C19.6608 18.2424 18.689 19.5824 17.4412 20.6331C16.1935 21.6838 14.7076 22.4133 13.1132 22.758C11.5189 23.1028 9.86436 23.0522 8.29399 22.6108C6.72363 22.1694 5.28509 21.3505 4.1038 20.2256C2.92252 19.1007 2.03436 17.7039 1.51676 16.1569C0.999169 14.61 0.867857 12.9599 1.13428 11.3506C1.4007 9.74131 2.05676 8.22159 3.04527 6.924C4.03377 5.62641 5.3247 4.59033 6.80548 3.90611" stroke="#14142B" stroke-width="2"/>
<path d="M12 1.98389C13.3132 1.98389 14.6136 2.24254 15.8268 2.74509C17.0401 3.24764 18.1425 3.98423 19.0711 4.91282C19.9997 5.84141 20.7362 6.9438 21.2388 8.15705C21.7413 9.37031 22 10.6707 22 11.9839L12 11.9839L12 1.98389Z" stroke="#14142B" stroke-width="2"/>
</svg>
