<svg width="29" height="28" viewBox="0 0 29 28" fill="none" xmlns="http://www.w3.org/2000/svg">
<path d="M27.5523 12.6034L20.4468 9.97325L17.7935 1.27722C17.6913 0.94187 17.3807 0.711914 17.0302 0.711914C16.6797 0.711914 16.3691 0.94187 16.2669 1.27722L13.6144 9.97325L6.50809 12.6034C6.19429 12.7199 5.98669 13.0178 5.98669 13.3523C5.98669 13.6861 6.19429 13.9855 6.50809 14.1013L13.6104 16.7306L16.2645 25.6917C16.3651 26.0303 16.6765 26.2626 17.0302 26.2626C17.3831 26.2626 17.6953 26.0303 17.7959 25.6909L20.45 16.7298L27.5531 14.1005C27.8653 13.9855 28.0737 13.6869 28.0737 13.3523C28.0737 13.0186 27.8653 12.7199 27.5523 12.6034Z" fill="#FFAC33"/>
<path d="M11.5832 21.3874L9.73555 20.7039L9.01694 18.069C8.92272 17.7208 8.60733 17.4797 8.24722 17.4797C7.88712 17.4797 7.57173 17.7208 7.47671 18.0682L6.7581 20.7031L4.91126 21.3866C4.59747 21.5023 4.38987 21.8018 4.38987 22.1355C4.38987 22.4693 4.59747 22.7687 4.91126 22.8845L6.74852 23.5656L7.47272 26.4576C7.56215 26.8121 7.88073 27.0612 8.24722 27.0612C8.61372 27.0612 8.9323 26.8121 9.02173 26.4568L9.74593 23.5648L11.5832 22.8837C11.897 22.7687 12.1046 22.4693 12.1046 22.1355C12.1046 21.8018 11.897 21.5023 11.5832 21.3874ZM8.11947 4.09034L6.23191 3.39168L5.53246 1.50333C5.41669 1.18953 5.11806 0.981934 4.78351 0.981934C4.44975 0.981934 4.15113 1.18953 4.03455 1.50333L3.3359 3.39168L1.44754 4.09034C1.13375 4.20691 0.926147 4.50554 0.926147 4.83929C0.926147 5.17305 1.13375 5.47247 1.44754 5.58825L3.3359 6.2869L4.03455 8.17526C4.15113 8.48905 4.44975 8.69665 4.78351 8.69665C5.11726 8.69665 5.41589 8.48905 5.53246 8.17526L6.23111 6.2869L8.11947 5.58825C8.43327 5.47167 8.64086 5.17305 8.64086 4.83929C8.64086 4.50554 8.43327 4.20691 8.11947 4.09034Z" fill="#FFCC4D"/>
</svg>
