<svg width="179" height="47" viewBox="0 0 179 47" fill="none" xmlns="http://www.w3.org/2000/svg">
<path d="M14.761 36.5532C12.7627 36.5532 10.9308 36.1488 9.26553 35.3399C7.60023 34.5152 6.14904 33.3337 4.91196 31.7952C3.69074 30.241 2.73914 28.3457 2.05716 26.1094C1.39104 23.8732 1.05798 21.3435 1.05798 18.5204C1.05798 15.6815 1.39104 13.1598 2.05716 10.9552C2.73914 8.73482 3.69074 6.85542 4.91196 5.317C6.14904 3.77858 7.60023 2.61287 9.26553 1.81987C10.9467 1.02687 12.7785 0.630371 14.761 0.630371C16.7594 0.630371 18.5912 1.02687 20.2565 1.81987C21.9377 2.61287 23.3888 3.77858 24.6101 5.317C25.8471 6.85542 26.7987 8.73482 27.4649 10.9552C28.1468 13.1598 28.4878 15.6815 28.4878 18.5204C28.4878 21.3435 28.1468 23.8732 27.4649 26.1094C26.7987 28.3457 25.8471 30.241 24.6101 31.7952C23.3888 33.3337 21.9377 34.5152 20.2565 35.3399C18.5912 36.1488 16.7594 36.5532 14.761 36.5532ZM14.761 33.8888C16.8704 33.8888 18.726 33.294 20.3279 32.1045C21.9456 30.915 23.2065 29.1783 24.1105 26.8945C25.0303 24.6107 25.4903 21.8193 25.4903 18.5204C25.4903 15.2057 25.0303 12.4223 24.1105 10.1702C23.1906 7.90217 21.9218 6.18929 20.3041 5.03152C18.7022 3.87374 16.8545 3.29485 14.761 3.29485C12.6834 3.29485 10.8357 3.87374 9.21795 5.03152C7.60023 6.18929 6.33143 7.90217 5.41155 10.1702C4.49167 12.4223 4.03173 15.2057 4.03173 18.5204C4.03173 21.8352 4.49167 24.6345 5.41155 26.9183C6.33143 29.2021 7.60023 30.9388 9.21795 32.1283C10.8357 33.3019 12.6834 33.8888 14.761 33.8888Z" fill="#222222"/>
<path d="M32.6804 46.4974V10.8363H35.6304V46.4974H32.6804ZM44.3375 36.5532C42.4026 36.5532 40.6104 36.0854 38.961 35.1496C37.3116 34.2139 35.9793 32.9451 34.9643 31.3432C33.9651 29.7414 33.4655 27.9413 33.4655 25.9429C33.4655 25.8953 33.4655 25.8557 33.4655 25.824C33.4655 25.7922 33.4655 25.7605 33.4655 25.7288L35.6304 25.6812C35.6304 25.7129 35.6304 25.7447 35.6304 25.7764C35.6304 25.8081 35.6304 25.8398 35.6304 25.8715C35.6304 27.2989 36.019 28.6153 36.7961 29.8207C37.5732 31.026 38.5883 31.9856 39.8412 32.6993C41.11 33.413 42.4819 33.7698 43.9569 33.7698C46.3993 33.7698 48.4056 32.9054 49.9757 31.1767C51.5617 29.4321 52.3547 26.8628 52.3547 23.4687C52.3547 20.0589 51.5617 17.4895 49.9757 15.7608C48.4056 14.0321 46.3993 13.1677 43.9569 13.1677C42.4819 13.1677 41.11 13.5245 39.8412 14.2382C38.5883 14.9519 37.5732 15.9035 36.7961 17.093C36.019 18.2825 35.6304 19.5989 35.6304 21.0422L33.4655 20.9708C33.4655 18.9724 33.9651 17.1803 34.9643 15.5943C35.9793 14.0083 37.3116 12.7633 38.961 11.8592C40.6104 10.9394 42.4026 10.4794 44.3375 10.4794C46.3835 10.4794 48.2391 10.9869 49.9044 12.002C51.5697 13.0012 52.894 14.4682 53.8773 16.4031C54.8765 18.338 55.3761 20.6933 55.3761 23.4687C55.3761 26.276 54.8844 28.655 53.9011 30.6057C52.9336 32.5565 51.6093 34.0394 49.9282 35.0545C48.2629 36.0536 46.3993 36.5532 44.3375 36.5532Z" fill="#222222"/>
<path d="M60.5169 24.7058V22.0651H80.9763L80.4054 22.874C80.4054 22.7788 80.4054 22.6995 80.4054 22.6361C80.4054 22.5568 80.4054 22.4775 80.4054 22.3982C80.4054 20.7646 80.0564 19.2421 79.3586 17.8305C78.6608 16.419 77.6457 15.285 76.3135 14.4286C74.9971 13.5721 73.3873 13.1439 71.4841 13.1439C69.5492 13.1439 67.8443 13.588 66.3693 14.4761C64.8943 15.3484 63.7444 16.5617 62.9197 18.116C62.095 19.6544 61.6826 21.4466 61.6826 23.4925C61.6826 25.5543 62.0871 27.3703 62.8959 28.9404C63.7207 30.4947 64.8705 31.708 66.3455 32.5803C67.8205 33.4367 69.5413 33.865 71.5079 33.865C72.9512 33.865 74.2041 33.6905 75.2667 33.3416C76.3452 32.9768 77.2334 32.501 77.9312 31.9142C78.6449 31.3274 79.1841 30.7088 79.5489 30.0586C79.9296 29.3925 80.1516 28.766 80.215 28.1792H83.1412C83.0778 29.1149 82.7764 30.0744 82.2372 31.0577C81.7138 32.0252 80.9605 32.9292 79.9771 33.7698C79.0097 34.6104 77.8043 35.2924 76.3611 35.8157C74.9337 36.3233 73.2842 36.577 71.4128 36.577C68.9703 36.577 66.7975 36.0219 64.8943 34.9117C63.007 33.8015 61.5161 32.271 60.4218 30.3203C59.3433 28.3536 58.8041 26.0936 58.8041 23.5401C58.8041 20.9708 59.3512 18.7108 60.4456 16.76C61.5399 14.7933 63.0387 13.2549 64.9419 12.1447C66.8451 11.0345 69.01 10.4794 71.4365 10.4794C73.9107 10.4794 76.0518 11.0425 77.8598 12.1685C79.6679 13.2946 81.0635 14.8251 82.0469 16.76C83.0302 18.679 83.5218 20.836 83.5218 23.2309C83.5218 23.437 83.5139 23.6987 83.4981 24.0159C83.4981 24.3331 83.4901 24.5631 83.4743 24.7058H60.5169Z" fill="#222222"/>
<path d="M106.27 36.1012V23.5401C106.27 22.763 106.27 22.1444 106.27 21.6845C106.27 21.2246 106.27 20.7726 106.27 20.3285C106.27 18.9169 106.016 17.6878 105.509 16.641C105.017 15.5784 104.256 14.7537 103.225 14.1669C102.194 13.5642 100.87 13.2628 99.2519 13.2628C97.8245 13.2628 96.4843 13.6197 95.2314 14.3334C93.9784 15.0312 92.9634 15.9828 92.1862 17.1882C91.425 18.3936 91.0443 19.7496 91.0443 21.2563L89.2601 20.5902C89.2601 18.6711 89.7517 16.9503 90.735 15.4277C91.7342 13.9052 93.0348 12.6998 94.6366 11.8117C96.2543 10.9235 97.9672 10.4794 99.7752 10.4794C101.694 10.4794 103.36 10.8442 104.771 11.5738C106.183 12.2875 107.269 13.3263 108.03 14.6902C108.807 16.0383 109.196 17.6799 109.196 19.6148C109.196 20.2809 109.196 20.9946 109.196 21.7559C109.196 22.5172 109.196 23.2071 109.196 23.8256V36.1012H106.27ZM88.0944 36.1012V10.8363H91.0443V36.1012H88.0944Z" fill="#222222"/>
<path fill-rule="evenodd" clip-rule="evenodd" d="M167.011 28.2011C167.315 30.0423 169.718 31.0296 171.305 29.1109C172.496 27.6717 174.628 27.4702 176.067 28.6608C177.506 29.8515 177.708 31.9835 176.517 33.4227C170.944 40.1593 160.603 36.5374 160.252 28.0418C160.238 27.9215 160.232 27.8025 160.232 27.6857L160.247 10.1057C160.247 8.35539 161.761 6.93652 163.629 6.93652C165.497 6.93653 167.011 8.3554 167.011 10.1057L167.011 28.2011Z" fill="url(#paint0_linear_3670_3805)"/>
<path fill-rule="evenodd" clip-rule="evenodd" d="M129.144 9.47769C130.762 10.4116 131.316 12.4801 130.382 14.0978L118.457 34.7514C117.524 36.369 115.455 36.9233 113.837 35.9893C112.22 35.0553 111.665 32.9869 112.599 31.3692L124.524 10.7156C125.458 9.09799 127.526 8.54374 129.144 9.47769Z" fill="url(#paint1_linear_3670_3805)"/>
<path fill-rule="evenodd" clip-rule="evenodd" d="M147.442 36.6191C145.574 36.6191 144.06 35.1049 144.06 33.237L144.06 15.232C144.06 13.3641 145.574 11.8498 147.442 11.8498C149.31 11.8498 150.824 13.3641 150.824 15.232L150.824 33.237C150.824 35.1049 149.31 36.6191 147.442 36.6191Z" fill="url(#paint2_linear_3670_3805)"/>
<path fill-rule="evenodd" clip-rule="evenodd" d="M150.279 23.1514L149.036 23.1767L144.057 23.1433C144.102 21.8729 144.864 19.5091 145.44 18.4029C146.043 17.2466 146.9 16.0565 147.984 15.0354C150.166 12.9814 153.628 11.354 157.655 12.8635C159.258 13.4646 160.07 15.2516 159.469 16.8549C158.868 18.4581 157.081 19.2706 155.478 18.6695C154.348 18.2458 153.299 18.5476 152.235 19.5496C151.697 20.0564 151.249 20.4876 150.939 21.269C150.787 21.9921 150.821 23.1429 150.821 23.1429L150.279 23.1514Z" fill="url(#paint3_linear_3670_3805)"/>
<path fill-rule="evenodd" clip-rule="evenodd" d="M160.231 15.9454L160.231 13.0811L171.362 13.0812C172.628 13.0812 174.326 14.3084 174.326 16.0206C174.477 17.6633 173.132 19.2818 171.362 19.2818H160.247L160.231 15.9454Z" fill="url(#paint4_linear_3670_3805)"/>
<g style="mix-blend-mode:overlay" opacity="0.2">
<path d="M160.246 19.3101H166.986L166.986 22.2421H160.246V19.3101Z" fill="url(#paint5_linear_3670_3805)"/>
</g>
<path fill-rule="evenodd" clip-rule="evenodd" d="M124.319 11.1444C124.592 10.4666 125.084 9.87164 125.766 9.4781C127.384 8.54415 129.452 9.0984 130.386 10.7161L142.31 31.3696C143.244 32.9873 142.69 35.0558 141.073 35.9897C139.455 36.9237 137.386 36.3694 136.452 34.7518L127.413 19.0948L127.462 19.2211C125.668 15.6575 122.899 15.2777 121.739 15.5333L124.305 11.1088L124.319 11.1444Z" fill="url(#paint6_linear_3670_3805)"/>
<defs>
<linearGradient id="paint0_linear_3670_3805" x1="160.232" y1="6.93652" x2="183.492" y2="12.9508" gradientUnits="userSpaceOnUse">
<stop stop-color="#9D0AFC"/>
<stop offset="1" stop-color="#0359FF"/>
</linearGradient>
<linearGradient id="paint1_linear_3670_3805" x1="126.581" y1="12.9332" x2="132.053" y2="19.5085" gradientUnits="userSpaceOnUse">
<stop stop-color="#00DFBA"/>
<stop offset="1" stop-color="#048AFE"/>
</linearGradient>
<linearGradient id="paint2_linear_3670_3805" x1="147.542" y1="12.7545" x2="147.542" y2="38.7381" gradientUnits="userSpaceOnUse">
<stop stop-color="#5900EB"/>
<stop offset="1" stop-color="#E367EE"/>
</linearGradient>
<linearGradient id="paint3_linear_3670_3805" x1="147.004" y1="23.2089" x2="160.785" y2="13.9748" gradientUnits="userSpaceOnUse">
<stop stop-color="#9129EC"/>
<stop offset="1" stop-color="#9F03FF"/>
</linearGradient>
<linearGradient id="paint4_linear_3670_3805" x1="167.63" y1="14.6777" x2="175.488" y2="22.899" gradientUnits="userSpaceOnUse">
<stop stop-color="#930FFC"/>
<stop offset="0.865143" stop-color="#004BFB"/>
</linearGradient>
<linearGradient id="paint5_linear_3670_3805" x1="163.616" y1="19.3639" x2="163.616" y2="21.9093" gradientUnits="userSpaceOnUse">
<stop/>
<stop offset="1" stop-opacity="0"/>
</linearGradient>
<linearGradient id="paint6_linear_3670_3805" x1="120.97" y1="9.2762" x2="153.943" y2="17.5295" gradientUnits="userSpaceOnUse">
<stop stop-color="#0056FE"/>
<stop offset="0.815625" stop-color="#D159ED"/>
</linearGradient>
</defs>
</svg>
